<svg width="30" height="30" viewBox="0 0 30 30" fill="none" xmlns="http://www.w3.org/2000/svg">
<path d="M24.8653 7.47368H22.5263V5.13474C22.5263 4.50947 22.0168 4 21.3916 4H21.3568C20.72 4 20.2105 4.50947 20.2105 5.13474V7.47368H17.8832C17.2579 7.47368 16.7484 7.98316 16.7368 8.60842V8.64316C16.7368 9.28 17.2463 9.78947 17.8832 9.78947H20.2105V12.1168C20.2105 12.7421 20.72 13.2632 21.3568 13.2516H21.3916C22.0168 13.2516 22.5263 12.7421 22.5263 12.1168V9.78947H24.8653C25.4905 9.78947 26 9.28 26 8.65474V8.60842C26 7.98316 25.4905 7.47368 24.8653 7.47368ZM19.0526 12.1168V10.9474H17.8832C17.2695 10.9474 16.6905 10.7042 16.2505 10.2758C15.8221 9.83579 15.5789 9.25684 15.5789 8.60842C15.5789 8.19158 15.6947 7.80947 15.8916 7.47368H6.31579C5.04211 7.47368 4 8.51579 4 9.78947V23.6842C4 24.9579 5.04211 26 6.31579 26H20.2105C21.4842 26 22.5263 24.9579 22.5263 23.6842V14.0968C22.1789 14.2937 21.7853 14.4211 21.3453 14.4211C20.0832 14.4095 19.0526 13.3789 19.0526 12.1168ZM19.0063 23.6842H7.47368C6.99895 23.6842 6.72105 23.14 7.01053 22.7579L9.30316 19.7126C9.54632 19.3884 10.0211 19.4116 10.2526 19.7358L12.1053 22.5263L15.1274 18.4968C15.3589 18.1958 15.8105 18.1842 16.0421 18.4853L19.4579 22.7463C19.7589 23.1284 19.4926 23.6842 19.0063 23.6842Z" fill="#5F121C"/>
</svg>
