<svg width="168" height="53" viewBox="0 0 168 53" fill="none" xmlns="http://www.w3.org/2000/svg">
<path d="M2.412 31C1.932 31 1.692 30.748 1.692 30.244V3.604C1.692 3.124 1.932 2.884 2.412 2.884H7.596C8.076 2.884 8.316 3.124 8.316 3.604V25.168H11.448C13.488 25.168 15.456 25.012 17.352 24.7C19.248 24.364 20.88 23.848 22.248 23.152V3.1C22.248 2.596 22.5 2.344 23.004 2.344H28.152C28.656 2.344 28.908 2.596 28.908 3.1V13.036H30.78C31.26 13.036 31.5 13.288 31.5 13.792V18.58C31.5 19.06 31.26 19.3 30.78 19.3H28.908V31C28.908 31.48 28.656 31.72 28.152 31.72H23.004C22.5 31.72 22.248 31.48 22.248 31V28.552C21.048 29.32 19.44 29.92 17.424 30.352C15.432 30.784 13.2 31 10.728 31H2.412ZM34.2293 19.084C33.7253 19.084 33.4733 18.844 33.4733 18.364V9.904C33.4733 9.424 33.7253 9.184 34.2293 9.184H44.5253V7.096H34.1572C33.6533 7.096 33.4013 6.856 33.4013 6.376V3.424C33.4013 2.944 33.6533 2.704 34.1572 2.704H50.4293C50.9333 2.704 51.1853 2.944 51.1853 3.424V11.704C51.1853 12.184 50.9333 12.424 50.4293 12.424H40.0973V14.62H43.2293C45.2453 14.62 47.2013 14.56 49.0973 14.44C51.0173 14.296 52.6613 13.96 54.0293 13.432V3.1C54.0293 2.596 54.2813 2.344 54.7853 2.344H59.9333C60.4373 2.344 60.6893 2.596 60.6893 3.1V8.212H62.3813C62.8613 8.212 63.1013 8.464 63.1013 8.968V13.18C63.1013 13.66 62.8613 13.9 62.3813 13.9H60.6893V18.976C60.6893 19.456 60.4373 19.696 59.9333 19.696H54.7853C54.2813 19.696 54.0293 19.456 54.0293 18.976V17.5C52.8293 18.076 51.2213 18.484 49.2053 18.724C47.2133 18.964 44.9813 19.084 42.5093 19.084H34.2293ZM35.2373 26.356C34.7573 26.356 34.5173 26.116 34.5173 25.636V22.252C34.5173 21.772 34.7573 21.532 35.2373 21.532H59.9693C60.4493 21.532 60.6893 21.772 60.6893 22.252V31C60.6893 31.48 60.4493 31.72 59.9693 31.72H54.4253C53.9453 31.72 53.7053 31.48 53.7053 31V26.356H35.2373ZM95.5474 31.72C95.0434 31.72 94.7914 31.48 94.7914 31V22.936C93.7354 23.416 92.4754 23.812 91.0114 24.124C89.5474 24.412 87.9514 24.592 86.2234 24.664V30.964C86.2234 31.444 85.9834 31.684 85.5034 31.684H80.6794C80.1994 31.684 79.9594 31.444 79.9594 30.964V24.7H73.9474C73.4434 24.7 73.1914 24.436 73.1914 23.908V20.092C73.1914 19.612 73.4434 19.372 73.9474 19.372H84.0994C84.2194 18.892 84.3394 18.34 84.4594 17.716C84.5794 17.092 84.6874 16.42 84.7834 15.7H75.3514C74.8474 15.7 74.5954 15.46 74.5954 14.98V11.92C74.5954 11.44 74.8474 11.2 75.3514 11.2H85.2874C85.3354 10.6 85.3714 10.024 85.3954 9.472C85.4194 8.896 85.4434 8.356 85.4674 7.852H75.6754C75.1954 7.852 74.9554 7.612 74.9554 7.132V3.64C74.9554 3.16 75.1954 2.92 75.6754 2.92H91.1194C91.6234 2.92 91.8754 3.16 91.8754 3.64L91.7314 8.212C91.5394 12.82 91.0714 16.468 90.3274 19.156C91.1434 19.06 91.9234 18.94 92.6674 18.796C93.4114 18.652 94.1194 18.46 94.7914 18.22V3.1C94.7914 2.596 95.0434 2.344 95.5474 2.344H100.695C101.199 2.344 101.451 2.596 101.451 3.1V31C101.451 31.48 101.199 31.72 100.695 31.72H95.5474ZM106.377 3.82C106.377 3.34 106.629 3.1 107.133 3.1H131.937C132.441 3.1 132.693 3.34 132.693 3.82V7.78C132.693 8.26 132.441 8.5 131.937 8.5H125.133L114.225 21.604C114.105 21.724 113.961 21.844 113.793 21.964C113.625 22.06 113.409 22.108 113.145 22.108H106.161C105.873 22.108 105.681 22.012 105.585 21.82C105.513 21.628 105.573 21.436 105.765 21.244L116.205 8.5H107.133C106.629 8.5 106.377 8.26 106.377 7.78V3.82ZM106.089 31C105.585 31 105.333 30.736 105.333 30.208V26.212C105.333 25.732 105.585 25.492 106.089 25.492H132.981C133.485 25.492 133.737 25.732 133.737 26.212V30.208C133.737 30.736 133.485 31 132.981 31H106.089ZM120.273 17.104C119.985 16.768 119.973 16.432 120.237 16.096L123.441 12.244C123.777 11.86 124.125 11.848 124.485 12.208L133.449 21.244C133.665 21.436 133.713 21.628 133.593 21.82C133.473 22.012 133.269 22.108 132.981 22.108H125.817C125.601 22.108 125.397 22.06 125.205 21.964C125.037 21.844 124.881 21.724 124.737 21.604L120.273 17.104ZM137.87 31C137.366 31 137.114 30.748 137.114 30.244V26.212C137.114 25.732 137.366 25.492 137.87 25.492H142.838V22.072C142.838 21.592 143.078 21.352 143.558 21.352H148.742C149.222 21.352 149.462 21.592 149.462 22.072V25.492H153.17V22.072C153.17 21.592 153.41 21.352 153.89 21.352H159.074C159.554 21.352 159.794 21.592 159.794 22.072V25.492H164.762C165.266 25.492 165.518 25.732 165.518 26.212V30.244C165.518 30.748 165.266 31 164.762 31H137.87ZM145.466 19.732C145.346 19.876 145.214 20.008 145.07 20.128C144.95 20.248 144.782 20.308 144.566 20.308H138.122C137.834 20.308 137.618 20.224 137.474 20.056C137.33 19.888 137.354 19.684 137.546 19.444L149.534 3.46C149.654 3.292 149.774 3.16 149.894 3.064C150.038 2.944 150.218 2.884 150.434 2.884H157.238C157.502 2.884 157.67 2.992 157.742 3.208C157.838 3.4 157.802 3.604 157.634 3.82L145.466 19.732ZM152.09 13.9C151.85 13.564 151.874 13.216 152.162 12.856L155.186 8.788C155.498 8.38 155.822 8.392 156.158 8.824L165.23 19.444C165.422 19.66 165.446 19.864 165.302 20.056C165.158 20.224 164.942 20.308 164.654 20.308H158.03C157.814 20.308 157.634 20.248 157.49 20.128C157.37 20.008 157.25 19.876 157.13 19.732L152.09 13.9Z" fill="#BE2438"/>
<path d="M5.096 50.56C3.81733 50.56 2.84667 50.3593 2.184 49.958C1.53067 49.5567 1.204 48.9267 1.204 48.068C1.204 47.2 1.53067 46.57 2.184 46.178C2.84667 45.7767 3.81733 45.576 5.096 45.576H7.616C8.89467 45.576 9.85133 45.7767 10.486 46.178C11.1207 46.57 11.438 47.2 11.438 48.068C11.438 48.9267 11.1207 49.5567 10.486 49.958C9.85133 50.3593 8.89467 50.56 7.616 50.56H5.096ZM3.066 41.292C3.27133 41.292 3.36933 41.39 3.36 41.586L3.234 42.874H4.452C5.236 42.874 5.99667 42.8367 6.734 42.762C7.48067 42.6873 8.12 42.5473 8.652 42.342V39.15C8.652 38.954 8.75 38.856 8.946 38.856H10.948C11.144 38.856 11.242 38.954 11.242 39.15V40.844H11.9C12.0867 40.844 12.18 40.942 12.18 41.138V42.776C12.18 42.9627 12.0867 43.056 11.9 43.056H11.242V44.792C11.242 44.9787 11.144 45.072 10.948 45.072H8.946C8.75 45.072 8.652 44.9787 8.652 44.792V44.078C8.18533 44.302 7.56 44.4747 6.776 44.596C6.00133 44.708 5.13333 44.764 4.172 44.764H0.952C0.858667 44.764 0.784 44.7407 0.728 44.694C0.672 44.6473 0.648667 44.5727 0.658 44.47L0.994 41.558C1.01267 41.3807 1.11067 41.292 1.288 41.292H3.066ZM0.518 39.276C0.518 39.0893 0.616 38.996 0.812 38.996H7.308C7.504 38.996 7.602 39.0893 7.602 39.276V40.592C7.602 40.7787 7.504 40.872 7.308 40.872H0.812C0.616 40.872 0.518 40.7787 0.518 40.592V39.276ZM7.616 48.838C8.008 48.838 8.274 48.7727 8.414 48.642C8.56333 48.502 8.638 48.3107 8.638 48.068C8.638 47.8253 8.56333 47.6387 8.414 47.508C8.274 47.368 8.008 47.298 7.616 47.298H5.096C4.704 47.298 4.424 47.3633 4.256 47.494C4.088 47.6153 4.004 47.8067 4.004 48.068C4.004 48.3387 4.088 48.5347 4.256 48.656C4.424 48.7773 4.704 48.838 5.096 48.838H7.616ZM21.5714 46.472C21.3754 46.472 21.2774 46.3787 21.2774 46.192V39.15C21.2774 38.954 21.3754 38.856 21.5714 38.856H23.5734C23.7694 38.856 23.8674 38.954 23.8674 39.15V46.192C23.8674 46.3787 23.7694 46.472 23.5734 46.472H21.5714ZM23.7274 47.9C23.9047 47.9 23.9934 47.9933 23.9934 48.18V49.86C23.9934 50.0467 23.9047 50.14 23.7274 50.14H13.8434C13.6567 50.14 13.5634 50.0467 13.5634 49.86V46.682C13.5634 46.4953 13.6567 46.402 13.8434 46.402H15.9574C16.1534 46.402 16.2514 46.4953 16.2514 46.682V47.9H23.7274ZM15.8594 45.394C15.8034 45.5433 15.6867 45.618 15.5094 45.618H13.2414C13.1294 45.618 13.05 45.59 13.0034 45.534C12.966 45.4687 12.9707 45.3847 13.0174 45.282L15.3834 39.22C15.4394 39.0707 15.5467 38.996 15.7054 38.996H18.0854C18.188 38.996 18.258 39.0287 18.2954 39.094C18.342 39.15 18.342 39.2293 18.2954 39.332L15.8594 45.394ZM17.8754 45.534C17.698 45.534 17.5907 45.4593 17.5534 45.31L17.0634 43.84C17.0447 43.7747 17.0354 43.7187 17.0354 43.672C17.0354 43.616 17.0494 43.5507 17.0774 43.476L18.1694 40.746C18.216 40.6247 18.2767 40.564 18.3514 40.564C18.4354 40.564 18.5007 40.6247 18.5474 40.746L20.2554 45.212C20.3487 45.4267 20.2787 45.534 20.0454 45.534H17.8754ZM25.6708 50C25.4748 50 25.3768 49.902 25.3768 49.706V48.138C25.3768 47.9513 25.4748 47.858 25.6708 47.858H29.5488V46.696C29.5488 46.5093 29.6421 46.416 29.8288 46.416H31.9848C32.1714 46.416 32.2648 46.5093 32.2648 46.696V47.858H36.1288C36.3248 47.858 36.4228 47.9513 36.4228 48.138V49.706C36.4228 49.902 36.3248 50 36.1288 50H25.6708ZM28.4988 43.742H35.7508C35.9468 43.742 36.0448 43.8353 36.0448 44.022V45.562C36.0448 45.7487 35.9468 45.842 35.7508 45.842H26.0768C25.9834 45.842 25.9088 45.8187 25.8528 45.772C25.7968 45.7253 25.7734 45.6507 25.7828 45.548L25.9928 41.936C26.0114 41.7587 26.1094 41.67 26.2868 41.67H28.3028C28.5081 41.67 28.6061 41.768 28.5968 41.964L28.4988 43.742ZM25.6427 39.43C25.6427 39.2433 25.7408 39.15 25.9368 39.15H35.6948C35.8908 39.15 35.9888 39.2433 35.9888 39.43V40.97C35.9888 41.1567 35.8908 41.25 35.6948 41.25H25.9368C25.7408 41.25 25.6427 41.1567 25.6427 40.97V39.43ZM71.5614 45.562H70.8754V45.954C70.8754 46.7473 70.8194 47.41 70.7074 47.942C70.5954 48.4647 70.4274 48.8847 70.2034 49.202C69.9888 49.5193 69.7228 49.7433 69.4054 49.874C69.0881 50.0047 68.7194 50.07 68.2994 50.07C67.8981 50.07 67.5388 50.0047 67.2214 49.874C66.9041 49.7433 66.6381 49.5193 66.4234 49.202C66.2088 48.8847 66.0408 48.4647 65.9194 47.942C65.8074 47.41 65.7514 46.7473 65.7514 45.954V41.908C65.7514 41.7213 65.8448 41.628 66.0314 41.628H67.5294C67.7254 41.628 67.8234 41.7213 67.8234 41.908V46.052C67.8234 46.4347 67.8328 46.752 67.8514 47.004C67.8701 47.2467 67.8981 47.438 67.9354 47.578C67.9821 47.718 68.0334 47.816 68.0894 47.872C68.1454 47.928 68.2154 47.956 68.2994 47.956C68.3834 47.956 68.4534 47.928 68.5094 47.872C68.5748 47.816 68.6261 47.718 68.6634 47.578C68.7101 47.438 68.7428 47.2467 68.7614 47.004C68.7894 46.752 68.8034 46.4347 68.8034 46.052V43.616C68.8034 42.7387 68.7101 42.118 68.5234 41.754C68.3461 41.39 68.0381 41.208 67.5994 41.208H65.7514C65.5554 41.208 65.4574 41.1147 65.4574 40.928V39.402C65.4574 39.2153 65.5554 39.122 65.7514 39.122H67.5294C68.1081 39.122 68.6028 39.2013 69.0134 39.36C69.4241 39.5093 69.7601 39.7473 70.0214 40.074C70.2921 40.4007 70.4928 40.8207 70.6234 41.334C70.7541 41.838 70.8334 42.44 70.8614 43.14H71.5614V39.234C71.5614 39.038 71.6548 38.94 71.8414 38.94H73.4514C73.6381 38.94 73.7314 39.038 73.7314 39.234V49.86C73.7314 50.0467 73.6381 50.14 73.4514 50.14H71.8414C71.6548 50.14 71.5614 50.0467 71.5614 49.86V45.562ZM74.4174 39.15C74.4174 38.954 74.5108 38.856 74.6974 38.856H76.3214C76.5081 38.856 76.6014 38.954 76.6014 39.15V50C76.6014 50.1867 76.5081 50.28 76.3214 50.28H74.6974C74.5108 50.28 74.4174 50.1867 74.4174 50V39.15ZM89.5554 44.274C89.3594 44.274 89.2614 44.1807 89.2614 43.994V39.15C89.2614 38.954 89.3594 38.856 89.5554 38.856H91.5574C91.7534 38.856 91.8514 38.954 91.8514 39.15V40.326H92.5094C92.696 40.326 92.7894 40.424 92.7894 40.62V42.272C92.7894 42.4587 92.696 42.552 92.5094 42.552H91.8514V43.994C91.8514 44.1807 91.7534 44.274 91.5574 44.274H89.5554ZM81.7574 44.288C81.5707 44.3067 81.4774 44.2133 81.4774 44.008V42.678C81.4774 42.4913 81.5707 42.398 81.7574 42.398C82.2334 42.3793 82.6814 42.3327 83.1014 42.258C83.5307 42.1833 83.9087 42.0807 84.2354 41.95C84.5714 41.81 84.8514 41.6513 85.0754 41.474C85.2994 41.2873 85.4534 41.0773 85.5374 40.844H81.5474C81.3607 40.844 81.2674 40.7507 81.2674 40.564V39.276C81.2674 39.0893 81.3607 38.996 81.5474 38.996H88.0574C88.2534 38.996 88.3514 39.094 88.3514 39.29V40.228C88.3514 40.7507 88.2534 41.2127 88.0574 41.614C87.8614 42.0153 87.5954 42.3653 87.2594 42.664C86.9327 42.9533 86.55 43.2007 86.1114 43.406C85.6727 43.602 85.2107 43.7653 84.7254 43.896C84.24 44.0173 83.7407 44.1107 83.2274 44.176C82.714 44.232 82.224 44.2693 81.7574 44.288ZM81.9534 50.21C81.7667 50.21 81.6734 50.1167 81.6734 49.93V47.298C81.6734 47.102 81.7667 47.004 81.9534 47.004H89.0934V46.416H81.9534C81.7667 46.416 81.6734 46.3227 81.6734 46.136V45.268C81.6734 45.0813 81.7667 44.988 81.9534 44.988H91.5714C91.758 44.988 91.8514 45.0813 91.8514 45.268V47.858C91.8514 48.0447 91.758 48.138 91.5714 48.138H84.4454V48.768H91.6974C91.884 48.768 91.9774 48.8613 91.9774 49.048V49.93C91.9774 50.1167 91.884 50.21 91.6974 50.21H81.9534ZM103.741 48.068V50.126C103.741 50.3127 103.648 50.406 103.461 50.406H101.305C101.119 50.406 101.025 50.3127 101.025 50.126V48.068H97.1473C96.9513 48.068 96.8533 47.9653 96.8533 47.76V46.276C96.8533 46.0893 96.9513 45.996 97.1473 45.996H107.605C107.801 45.996 107.899 46.0893 107.899 46.276V47.76C107.899 47.9653 107.801 48.068 107.605 48.068H103.741ZM100.311 44.848C100.265 44.904 100.213 44.9553 100.157 45.002C100.111 45.0487 100.045 45.072 99.9613 45.072H97.2453C97.1333 45.072 97.0493 45.0393 96.9933 44.974C96.9373 44.9087 96.9466 44.8293 97.0213 44.736L101.613 39.22C101.66 39.1547 101.711 39.1033 101.767 39.066C101.823 39.0193 101.889 38.996 101.963 38.996H104.819C104.922 38.996 104.987 39.038 105.015 39.122C105.053 39.1967 105.039 39.276 104.973 39.36L100.311 44.848ZM102.705 43.084C102.612 42.9533 102.612 42.8273 102.705 42.706L103.965 41.208C104.087 41.04 104.217 41.0353 104.357 41.194L107.787 44.736C107.862 44.82 107.871 44.8993 107.815 44.974C107.759 45.0393 107.675 45.072 107.563 45.072H104.777C104.693 45.072 104.623 45.0487 104.567 45.002C104.521 44.9553 104.474 44.904 104.427 44.848L102.705 43.084ZM114.805 41.18C115.001 41.18 115.099 41.278 115.099 41.474V42.118C115.099 42.986 115.435 43.42 116.107 43.42C116.798 43.42 117.143 42.986 117.143 42.118C117.143 41.642 117.003 41.292 116.723 41.068C116.443 40.844 115.995 40.732 115.379 40.732H112.495C112.299 40.732 112.201 40.6433 112.201 40.466V39.234C112.201 39.038 112.299 38.94 112.495 38.94H115.309C116.709 38.94 117.797 39.192 118.571 39.696C119.355 40.2 119.747 41.0027 119.747 42.104C119.747 42.636 119.659 43.1027 119.481 43.504C119.304 43.896 119.052 44.2227 118.725 44.484C118.408 44.7453 118.025 44.9413 117.577 45.072C117.139 45.1933 116.649 45.254 116.107 45.254C115.575 45.254 115.085 45.1933 114.637 45.072C114.199 44.9413 113.821 44.7453 113.503 44.484C113.186 44.2227 112.939 43.896 112.761 43.504C112.584 43.1027 112.495 42.636 112.495 42.104V41.474C112.495 41.278 112.589 41.18 112.775 41.18H114.805ZM120.993 45.492C120.797 45.492 120.699 45.3987 120.699 45.212V39.15C120.699 38.954 120.797 38.856 120.993 38.856H122.995C123.191 38.856 123.289 38.954 123.289 39.15V45.212C123.289 45.3987 123.191 45.492 122.995 45.492H120.993ZM112.439 48.39C112.439 48.2033 112.537 48.11 112.733 48.11H114.175L115.575 46.192C115.659 46.0987 115.795 46.052 115.981 46.052H117.913C118.025 46.052 118.091 46.094 118.109 46.178C118.137 46.2527 118.114 46.332 118.039 46.416L115.393 50.07C115.309 50.1633 115.174 50.21 114.987 50.21H112.733C112.537 50.21 112.439 50.1167 112.439 49.93V48.39ZM118.543 50.07C118.459 50.1633 118.324 50.21 118.137 50.21H116.205C116.093 50.21 116.023 50.1727 115.995 50.098C115.967 50.0233 115.991 49.944 116.065 49.86L118.725 46.192C118.809 46.0987 118.945 46.052 119.131 46.052H121.063C121.175 46.052 121.241 46.094 121.259 46.178C121.287 46.2527 121.264 46.332 121.189 46.416L118.543 50.07ZM121.847 48.11H123.331C123.527 48.11 123.625 48.2033 123.625 48.39V49.93C123.625 50.1167 123.527 50.21 123.331 50.21H121.735H121.679H121.035C120.858 50.21 120.723 50.154 120.629 50.042L119.915 49.23C119.813 49.118 119.817 48.9967 119.929 48.866L120.951 47.466C120.998 47.41 121.054 47.3867 121.119 47.396C121.194 47.396 121.255 47.424 121.301 47.48L121.847 48.11ZM125.275 50.21C125.088 50.21 124.995 50.1167 124.995 49.93V46.5C124.995 46.3133 125.088 46.22 125.275 46.22H127.291C127.477 46.22 127.571 46.3133 127.571 46.5V48.852H133.059V48.11H128.285C128.089 48.11 127.991 48.0167 127.991 47.83V47.102C127.991 46.9153 128.089 46.822 128.285 46.822H133.059V46.5C133.059 46.3133 133.157 46.22 133.353 46.22H135.355C135.551 46.22 135.649 46.3133 135.649 46.5V49.93C135.649 50.1167 135.551 50.21 135.355 50.21H125.275ZM125.093 45.674C124.897 45.674 124.799 45.576 124.799 45.38V44.288C124.799 44.1013 124.897 44.008 125.093 44.008H135.551C135.747 44.008 135.845 44.1013 135.845 44.288V45.38C135.845 45.576 135.747 45.674 135.551 45.674H125.093ZM128.173 43.28C128.042 43.392 127.897 43.448 127.739 43.448H124.981C124.869 43.448 124.794 43.4107 124.757 43.336C124.729 43.252 124.757 43.1727 124.841 43.098L128.957 39.136C129.013 39.08 129.064 39.0333 129.111 38.996C129.167 38.9587 129.237 38.94 129.321 38.94H132.121C132.223 38.94 132.293 38.982 132.331 39.066C132.368 39.15 132.349 39.2293 132.275 39.304L128.173 43.28ZM130.763 41.754C130.707 41.6887 130.683 41.6187 130.693 41.544C130.702 41.4693 130.735 41.404 130.791 41.348L132.009 40.172C132.149 40.032 132.289 40.0227 132.429 40.144L135.719 43.028C135.803 43.1027 135.826 43.182 135.789 43.266C135.761 43.3407 135.691 43.378 135.579 43.378H132.849C132.69 43.378 132.536 43.3127 132.387 43.182L130.763 41.754ZM137.578 50C137.391 50 137.298 49.902 137.298 49.706V39.346C137.298 39.1593 137.391 39.066 137.578 39.066H139.594C139.781 39.066 139.874 39.1593 139.874 39.346V47.732H141.232C142.007 47.732 142.763 47.6713 143.5 47.55C144.247 47.4287 144.886 47.2327 145.418 46.962V39.15C145.418 38.954 145.516 38.856 145.712 38.856H147.714C147.91 38.856 148.008 38.954 148.008 39.15V50C148.008 50.1867 147.91 50.28 147.714 50.28H145.712C145.516 50.28 145.418 50.1867 145.418 50V49.062C144.951 49.3513 144.331 49.58 143.556 49.748C142.781 49.916 141.913 50 140.952 50H137.578ZM157.805 50.28C157.609 50.28 157.511 50.1867 157.511 50V49.16C157.045 49.4493 156.419 49.6733 155.635 49.832C154.861 49.9907 153.993 50.07 153.031 50.07H149.811C149.718 50.07 149.643 50.0467 149.587 50C149.531 49.9533 149.508 49.8787 149.517 49.776L149.923 41.894C149.942 41.7167 150.04 41.628 150.217 41.628H152.191C152.397 41.628 152.495 41.726 152.485 41.922L152.163 47.998H153.311C154.095 47.998 154.856 47.9373 155.593 47.816C156.34 47.6947 156.979 47.4987 157.511 47.228V39.15C157.511 38.954 157.609 38.856 157.805 38.856H159.807C160.003 38.856 160.101 38.954 160.101 39.15V43.014H160.829C161.016 43.014 161.109 43.112 161.109 43.308V45.17C161.109 45.3567 161.016 45.45 160.829 45.45H160.101V50C160.101 50.1867 160.003 50.28 159.807 50.28H157.805ZM149.377 39.416C149.377 39.2293 149.475 39.136 149.671 39.136H156.111C156.307 39.136 156.405 39.2293 156.405 39.416V40.928C156.405 41.1147 156.307 41.208 156.111 41.208H149.671C149.475 41.208 149.377 41.1147 149.377 40.928V39.416Z" fill="black"/>
<path d="M41.2427 50C41.056 50 40.9627 49.902 40.9627 49.706V39.346C40.9627 39.1593 41.056 39.066 41.2427 39.066H43.2587C43.4454 39.066 43.5387 39.1593 43.5387 39.346V47.732H44.7567C45.55 47.732 46.3154 47.6713 47.0527 47.55C47.79 47.4193 48.4247 47.2187 48.9567 46.948V39.15C48.9567 38.954 49.0547 38.856 49.2507 38.856H51.2527C51.4487 38.856 51.5467 38.954 51.5467 39.15V43.014H52.2747C52.4614 43.014 52.5547 43.112 52.5547 43.308V45.17C52.5547 45.3567 52.4614 45.45 52.2747 45.45H51.5467V50C51.5467 50.1867 51.4487 50.28 51.2527 50.28H49.2507C49.0547 50.28 48.9567 50.1867 48.9567 50V49.048C48.49 49.3467 47.8647 49.58 47.0807 49.748C46.306 49.916 45.438 50 44.4767 50H41.2427ZM53.6161 45.366C53.4201 45.366 53.3221 45.2727 53.3221 45.086V41.796C53.3221 41.6093 53.4201 41.516 53.6161 41.516H57.6201V40.704H53.5881C53.3921 40.704 53.2941 40.6107 53.2941 40.424V39.276C53.2941 39.0893 53.3921 38.996 53.5881 38.996H59.9161C60.1121 38.996 60.2101 39.0893 60.2101 39.276V42.496C60.2101 42.6827 60.1121 42.776 59.9161 42.776H55.8981V43.63H57.1161C57.9001 43.63 58.6607 43.6067 59.3981 43.56C60.1447 43.504 60.7841 43.3733 61.3161 43.168V39.15C61.3161 38.954 61.4141 38.856 61.6101 38.856H63.6121C63.8081 38.856 63.9061 38.954 63.9061 39.15V41.138H64.5641C64.7507 41.138 64.8441 41.236 64.8441 41.432V43.07C64.8441 43.2567 64.7507 43.35 64.5641 43.35H63.9061V45.324C63.9061 45.5107 63.8081 45.604 63.6121 45.604H61.6101C61.4141 45.604 61.3161 45.5107 61.3161 45.324V44.75C60.8494 44.974 60.2241 45.1327 59.4401 45.226C58.6654 45.3193 57.7974 45.366 56.8361 45.366H53.6161ZM54.0081 48.194C53.8214 48.194 53.7281 48.1007 53.7281 47.914V46.598C53.7281 46.4113 53.8214 46.318 54.0081 46.318H63.6261C63.8127 46.318 63.9061 46.4113 63.9061 46.598V50C63.9061 50.1867 63.8127 50.28 63.6261 50.28H61.4701C61.2834 50.28 61.1901 50.1867 61.1901 50V48.194H54.0081Z" fill="#ED2D46"/>
</svg>
